<svg width="14" height="12" viewBox="0 0 14 12" fill="none" xmlns="http://www.w3.org/2000/svg">
    <path fill-rule="evenodd" clip-rule="evenodd" d="M5.33333 0H8C8.73638 0 9.33333 0.596954 9.33333 1.33333V2H12C12.7364 2 13.3333 2.59695 13.3333 3.33333V10.6667C13.3333 11.403 12.7364 12 12 12H1.33333C0.596954 12 0 11.403 0 10.6667V3.33333C0 2.59695 0.596954 2 1.33333 2H4V1.33333C4 0.596954 4.59695 0 5.33333 0ZM1.33333 3.33333H4H9.33333H12V6.66667H7.33333H6H1.33333V3.33333ZM1.33333 10.6667V8H6V8.66667H7.33333V8H12V10.6667H1.33333ZM8 1.33333V2H5.33333V1.33333H8Z" fill="#BEBFC1"/>
</svg>
