<svg width="18" height="18" viewBox="0 0 18 18" fill="none" xmlns="http://www.w3.org/2000/svg">
    <path fill-rule="evenodd" clip-rule="evenodd" d="M18.0001 9C18.0001 7.48577 16.9828 6.3 15.3001 6.3H12.5344L12.5594 6.23185C12.5844 6.16419 12.6549 5.97838 12.7234 5.79792C12.784 5.63822 12.843 5.48271 12.8675 5.41702C13.0386 4.9577 13.1635 4.58762 13.2645 4.22112C13.4172 3.66717 13.5001 3.1681 13.5001 2.7C13.5001 1.37519 12.6828 0.552347 11.4736 0.200238C10.9282 0.0414255 10.4534 -8.24716e-05 9.90012 1.22944e-07H9.46856L9.19836 0.336496C8.89313 0.716615 8.29361 1.40168 7.60243 2.19149L7.60243 2.1915L7.60241 2.19152C6.32734 3.64854 4.74034 5.462 4.11345 6.37505C3.95074 6.32671 3.7784 6.30076 3.6 6.30076H1.8C0.805887 6.30076 0 7.10665 0 8.10076V16.2008C0 17.1949 0.805887 18.0008 1.8 18.0008H3.6C4.21842 18.0008 4.764 17.6889 5.08804 17.2138C5.3611 17.3905 5.66577 17.5379 5.99693 17.6564C6.75502 17.9276 7.50688 18.0109 8.13108 17.9995L14.4001 18C16.8797 18 18.0001 14.3492 18.0001 9ZM6.60309 15.9615C5.8138 15.6791 5.40722 15.2202 5.4 14.4216V8.10076L5.39995 8.08711C5.4015 7.87616 5.44163 7.68827 5.52744 7.48791C5.68471 7.12072 7.11164 5.49275 8.46411 3.94973C9.16213 3.15337 9.84031 2.37964 10.3139 1.81354C10.5402 1.83052 10.7534 1.86529 10.9701 1.92839C11.4859 2.07856 11.6999 2.29405 11.6999 2.69993C11.6999 2.98485 11.6422 3.33201 11.529 3.74267C11.4444 4.04954 11.3349 4.37426 11.1805 4.78852C11.1586 4.84732 11.104 4.99139 11.0458 5.14458C10.975 5.33124 10.8991 5.53144 10.871 5.60742C10.7539 5.92388 10.6768 6.15688 10.6241 6.36861C10.3999 7.26864 10.6248 8.09993 11.6999 8.09993H15.2999C15.922 8.09993 16.1999 8.42383 16.1999 8.99993C16.1999 13.3116 15.3135 16.1999 14.3999 16.1999H8.0999L8.06666 16.2005C7.67274 16.2075 7.11946 16.1463 6.60309 15.9615ZM1.79996 16.2007V8.10072H3.59996V16.2007H1.79996Z" fill="white"/>
</svg>
