<svg width="22" height="22" viewBox="0 0 22 22" fill="none" xmlns="http://www.w3.org/2000/svg">
    <path fill-rule="evenodd" clip-rule="evenodd" d="M7.33324 8.62966L1.18506 2.48148L2.48142 1.18512L20.8148 19.5184L19.5184 20.8148L15.4967 16.7932C14.4824 17.5816 13.2556 18.1096 11.9166 18.2766V19.25H14.6666V21.0833H7.33324V19.25H10.0832V18.2766C6.46579 17.8255 3.66657 14.7396 3.66657 11V9.16663H5.49991V11C5.49991 14.0375 7.96234 16.5 10.9999 16.5C12.1877 16.5 13.2876 16.1234 14.1867 15.4831L12.8625 14.159C12.3167 14.4815 11.6799 14.6666 10.9999 14.6666C8.97486 14.6666 7.33324 13.025 7.33324 11V8.62966ZM11.4748 12.7712C11.3233 12.8117 11.1641 12.8333 10.9999 12.8333C9.98738 12.8333 9.16657 12.0125 9.16657 11V10.463L11.4748 12.7712ZM12.8332 4.58329V8.97026L14.6666 10.8036V4.58329C14.6666 2.55825 13.025 0.916626 10.9999 0.916626C9.31445 0.916626 7.8946 2.05384 7.4658 3.60282L9.16657 5.3036V4.58329C9.16657 3.57077 9.98738 2.74996 10.9999 2.74996C12.0124 2.74996 12.8332 3.57077 12.8332 4.58329ZM17.7451 13.8822L16.3081 12.4451C16.4332 11.9846 16.4999 11.5001 16.4999 11V9.16663H18.3332V11C18.3332 12.0232 18.1237 12.9974 17.7451 13.8822Z" fill="white"/>
</svg>
