<svg width="12" height="14" viewBox="0 0 12 14" fill="none" xmlns="http://www.w3.org/2000/svg">
    <path fill-rule="evenodd" clip-rule="evenodd" d="M12 13.3333H2C0.895431 13.3333 0 12.4379 0 11.3333V2C0 0.895431 0.895431 0 2 0H12V10.6667C11.6318 10.6667 11.3333 10.9651 11.3333 11.3333C11.3333 11.7015 11.6318 12 12 12V13.3333ZM10 11.3333C10 11.0996 10.0401 10.8752 10.1138 10.6667H2C1.63181 10.6667 1.33333 10.9651 1.33333 11.3333C1.33333 11.7015 1.63181 12 2 12H10.1138C10.0401 11.7915 10 11.5671 10 11.3333ZM2 1.33333H10.6667V9.33333H2C1.76624 9.33333 1.54185 9.37344 1.33333 9.44714V2C1.33333 1.63181 1.63181 1.33333 2 1.33333Z" fill="#BEBFC1"/>
</svg>
