<svg width="16" height="22" viewBox="0 0 16 22" fill="none" xmlns="http://www.w3.org/2000/svg">
    <path fill-rule="evenodd" clip-rule="evenodd" d="M7.99925 0C10.2084 0 11.9993 1.79086 11.9993 4V11C11.9993 13.2091 10.2084 15 7.99925 15C5.79011 15 3.99925 13.2091 3.99925 11V4C3.99925 1.79086 5.79011 0 7.99925 0ZM9 18.938V19.9999H12V21.9999H4V19.9999H7V18.938C3.05369 18.4459 0 15.0795 0 10.9999V8.99986H2V10.9999C2 14.3136 4.68629 16.9999 8 16.9999C11.3137 16.9999 14 14.3136 14 10.9999V8.99986H16V10.9999C16 15.0795 12.9463 18.4459 9 18.938ZM6.0002 4.00007C6.0002 2.8955 6.89563 2.00007 8.0002 2.00007C9.10477 2.00007 10.0002 2.8955 10.0002 4.00007V11.0001C10.0002 12.1046 9.10477 13.0001 8.0002 13.0001C6.89563 13.0001 6.0002 12.1046 6.0002 11.0001V4.00007Z" fill="white"/>
</svg>
